PathFileType	4	(X/Y/Z)	/Users/itak/Documents/Research/Walk-IL/dataset/trc/00373_00011.trc
DataRate	CameraRate	NumFrames	NumMarkers	Units	OrigDataRate	OrigDataStartFrame	OrigNumFrames
100.000000	100.000000	4	54	mm	100.000000	342	548
Frame#	Time	RPSI			LPSI			L3			STRN			T10			C7			CLAV			RBAK			LBAK			LSHO			LUPA			LAEL			LAOL			LWTS			LWPS			LFRA			LHPS			LHTS			RSHO			RUPA			RAEL			RAOL			RWTS			RWPS			RFRA			RIFD			RHTS			RHPS			RBHD			LFHD			RFHD			LBHD			LHIP			RHIP			RASI			LASI			LKNE			LTHI			LANK			LTIP			LTOE			LMT1			LMT5			LHEE			RKNE			RTHI			RANK			RTIP			RTOE			RMT1			RMT5			RHEE			LIFD			*53			
		X1	Y1	Z1	X2	Y2	Z2	X3	Y3	Z3	X4	Y4	Z4	X5	Y5	Z5	X6	Y6	Z6	X7	Y7	Z7	X8	Y8	Z8	X9	Y9	Z9	X10	Y10	Z10	X11	Y11	Z11	X12	Y12	Z12	X13	Y13	Z13	X14	Y14	Z14	X15	Y15	Z15	X16	Y16	Z16	X17	Y17	Z17	X18	Y18	Z18	X19	Y19	Z19	X20	Y20	Z20	X21	Y21	Z21	X22	Y22	Z22	X23	Y23	Z23	X24	Y24	Z24	X25	Y25	Z25	X26	Y26	Z26	X27	Y27	Z27	X28	Y28	Z28	X29	Y29	Z29	X30	Y30	Z30	X31	Y31	Z31	X32	Y32	Z32	X33	Y33	Z33	X34	Y34	Z34	X35	Y35	Z35	X36	Y36	Z36	X37	Y37	Z37	X38	Y38	Z38	X39	Y39	Z39	X40	Y40	Z40	X41	Y41	Z41	X42	Y42	Z42	X43	Y43	Z43	X44	Y44	Z44	X45	Y45	Z45	X46	Y46	Z46	X47	Y47	Z47	X48	Y48	Z48	X49	Y49	Z49	X50	Y50	Z50	X51	Y51	Z51	X52	Y52	Z52	X53	Y53	Z53	X54	Y54	Z54	

343	3.42	-20.31597137451172	933.7738037109375	409.9109191894531	100.2746429443359	945.424560546875	363.1249389648438	46.09099578857422	998.3738403320312	381.2221374511719	109.0749130249023	1181.7890625	604.2468872070312	59.89916610717773	1117.273193359375	366.4748229980469	84.79830932617188	1364.9423828125	407.4397583007812	101.4193267822266	1307.74755859375	562.5164794921875	15.16843128204346	1224.529174804688	368.1837463378906	183.7797698974609	1329.166748046875	378.55810546875	249.4034881591797	1346.362915039062	455.4821166992188	320.8333740234375	1229.75244140625	433.7036437988281	373.1464538574219	1037.5048828125	476.8717956542969	310.1134338378906	1002.685180664062	430.4837646484375	382.8707885742188	847.0065307617188	649.0487060546875	432.3909912109375	824.2371826171875	606.4352416992188	400.0362243652344	943.6998291015625	516.7208862304688	437.3361206054688	759.9312133789062	630.4693603515625	411.8111877441406	781.4482421875	686.9135131835938	-68.58399963378906	1349.992309570312	481.9693908691406	-133.1651153564453	1289.337158203125	469.4081420898438	-173.435791015625	1031.108276367188	416.7083435058594	-81.91372680664062	1024.20849609375	393.4966430664062	-161.9926452636719	783.2320556640625	480.0250244140625	-225.5353698730469	784.0607299804688	436.295166015625	-192.3384552001953	962.6153564453125	425.5517883300781	-181.6600036621094	613.582763671875	446.0693969726562	-178.69580078125	670.21923828125	469.001953125	-228.9517669677734	698.566162109375	427.2760009765625	7.268612384796143	1577.546508789062	506.7497253417969	156.4689636230469	1551.314697265625	648.7180786132812	56.26275634765625	1549.501586914062	658.9461059570312	144.9660339355469	1582.797607421875	465.0024108886719	232.3860931396484	889.6349487304688	396.5452270507812	-83.22107696533203	879.8887329101562	529.4798583984375	-1.833099246025085	911.8050537109375	604.9266967773438	227.6081695556641	908.5552978515625	534.0203247070312	190.6466369628906	440.8962097167969	366.7497863769531	217.1569213867188	572.7900390625	392.3231811523438	49.50292205810547	96.18088531494141	123.701286315918	133.1875457763672	259.3430480957031	237.0429077148438	109.7846832275391	37.31515121459961	309.5881958007812	37.94870376586914	33.37307739257812	282.4649353027344	126.3837432861328	45.48870849609375	207.4457397460938	-24.21234321594238	107.3142242431641	138.4090576171875	48.10435104370117	441.3114013671875	675.7293090820312	-31.50904846191406	690.6786499023438	642.8792724609375	134.4505615234375	44.16719436645508	698.69921875	80.94834136962891	331.4671020507812	707.2390747070312	211.69873046875	66.5821533203125	880.494384765625	245.8749237060547	50.35166931152344	821.8954467773438	132.0021514892578	40.45949172973633	801.9450073242188	176.2913818359375	41.84897232055664	644.4236450195312	403.92236328125	700.034912109375	718.330078125	nan	nan	nan	
344	3.43	-16.68569564819336	935.674560546875	419.3422546386719	104.2879791259766	946.3956909179688	372.9764404296875	49.85715866088867	999.2422485351562	391.3782958984375	111.753044128418	1183.335327148438	613.3195190429688	63.20912551879883	1117.984497070312	375.6820678710938	87.36928558349609	1365.926879882812	415.7696838378906	103.9603271484375	1309.248413085938	571.1396484375	18.06967544555664	1225.185668945312	377.0017700195312	186.3915405273438	1330.279663085938	387.0879211425781	252.0149688720703	1347.564575195312	464.0205688476562	322.9084167480469	1230.5673828125	441.9306945800781	373.5208435058594	1037.68701171875	483.8880920410156	310.2088928222656	1003.676208496094	437.059814453125	381.3857421875	845.2877807617188	654.06787109375	431.2296142578125	822.8162841796875	611.6325073242188	399.6606140136719	943.255859375	522.8272705078125	435.619384765625	758.212158203125	634.6783447265625	409.4959716796875	778.976806640625	691.2938232421875	-66.05491638183594	1350.882202148438	490.1751098632812	-130.4999694824219	1289.975952148438	477.9459838867188	-169.9914703369141	1031.073608398438	427.7116394042969	-78.54744720458984	1024.373901367188	404.1759643554688	-156.9615478515625	783.9286499023438	494.0111694335938	-220.5501403808594	783.9005737304688	450.4202575683594	-188.4450531005859	962.51416015625	437.3095397949219	-175.8817443847656	613.803955078125	462.5097351074219	-172.8690795898438	671.0404663085938	484.7833251953125	-223.6251220703125	698.2752685546875	442.6141662597656	9.719218254089355	1578.858032226562	514.6207275390625	158.6911010742188	1552.695922851562	656.80712890625	58.43899536132812	1550.890502929688	666.8959350585938	147.4586486816406	1584.0380859375	473.0624389648438	236.1806335449219	890.3214111328125	407.0014953613281	-80.35087585449219	882.2320556640625	538.9028930664062	0.8956813812255859	913.681884765625	614.2277221679688	230.5254211425781	909.886474609375	544.8109741210938	196.9397125244141	441.0796813964844	380.6156921386719	222.1614532470703	572.6187744140625	405.5272827148438	52.65753936767578	103.7665252685547	127.9894638061523	137.8812866210938	263.3534240722656	245.8045043945312	109.8690185546875	37.48578262329102	309.2652587890625	39.06108474731445	34.89752197265625	283.5258483886719	128.1466674804688	46.79206848144531	208.8822631835938	-20.56581497192383	116.5319747924805	143.5554809570312	50.12943649291992	442.4290771484375	682.86865234375	-29.18862152099609	691.7493896484375	651.0245361328125	134.9177551269531	44.86873626708984	699.7871704101562	83.065185546875	331.8100891113281	713.52197265625	213.6342315673828	62.46846008300781	882.0406494140625	247.4112701416016	47.3265380859375	822.8092651367188	133.4123992919922	39.51220321655273	802.800048828125	176.6439361572266	42.92326736450195	645.3976440429688	400.3108825683594	697.290283203125	721.7109375	nan	nan	nan	
345	3.44	-13.08412647247314	937.7024536132812	428.5328369140625	108.2506942749023	947.5176391601562	382.6961975097656	53.48430252075195	1000.375305175781	401.4051208496094	114.359489440918	1185.085815429688	622.38818359375	66.39849853515625	1118.909423828125	384.9481201171875	89.89548492431641	1367.104614257812	424.1058044433594	106.4855880737305	1310.936767578125	579.7113647460938	20.89700317382812	1226.086303710938	385.8677673339844	188.9065399169922	1331.587890625	395.5874328613281	254.5573883056641	1349.0048828125	472.5092468261719	324.9342346191406	1231.677856445312	450.1435241699219	373.7241821289062	1038.192016601562	490.8664245605469	310.2082214355469	1005.006286621094	443.5947875976562	379.8905639648438	843.5843505859375	658.7467041015625	430.0975036621094	821.529541015625	616.4033203125	399.160400390625	943.09375	528.7695922851562	433.8353271484375	756.5083618164062	638.3551635742188	407.2260437011719	776.4356689453125	695.1146240234375	-63.52744293212891	1352.038330078125	498.4140014648438	-127.8600158691406	1290.931396484375	486.5558166503906	-166.6322326660156	1031.377807617188	438.934814453125	-75.27625274658203	1024.842895507812	415.039794921875	-152.0434265136719	785.08203125	508.3890991210938	-215.6489868164062	784.12255859375	464.9578247070312	-184.64013671875	962.7605590820312	449.3214111328125	-170.2017822265625	614.446533203125	479.551025390625	-167.9896545410156	673.0818481445312	501.8627624511719	-218.4095458984375	698.384033203125	458.43310546875	12.12299728393555	1580.284423828125	522.4765014648438	160.8633880615234	1554.228637695312	664.8753662109375	60.55781555175781	1552.401489257812	674.8305053710938	149.9210357666016	1585.421875	481.1164245605469	239.9121398925781	891.2796020507812	417.4739990234375	-77.699462890625	884.759765625	548.0560913085938	3.331462860107422	915.7258911132812	623.3492431640625	233.1090698242188	911.4564819335938	555.4806518554688	204.0259094238281	441.3033447265625	395.366455078125	227.6343688964844	572.5535278320312	419.3623962402344	56.52302169799805	111.9455413818359	133.1881713867188	143.3380737304688	267.6379699707031	255.5411682128906	109.9981918334961	37.59397125244141	308.9286804199219	40.41670989990234	36.71338272094727	284.8134765625	130.1609039306641	48.22465133666992	210.5601043701172	-16.10298919677734	126.4386215209961	149.7498168945312	51.88856506347656	443.5637817382812	689.8325805664062	-27.06771659851074	693.0223999023438	658.990966796875	135.2458648681641	45.4958610534668	700.7708129882812	84.83876800537109	332.1491088867188	719.423583984375	215.1972961425781	58.91446304321289	883.2937622070312	248.6607360839844	44.94823455810547	823.5081787109375	134.4853363037109	38.79668807983398	803.52099609375	176.7960510253906	43.87201309204102	646.2138061523438	396.76025390625	694.4833984375	724.3396606445312	nan	nan	nan	
346	3.45	-9.528399467468262	939.7586059570312	437.4573059082031	112.1347885131836	948.7254028320312	392.2399597167969	56.95866012573242	1001.674987792969	411.248291015625	116.8896865844727	1186.994384765625	631.4395141601562	69.45635223388672	1119.982177734375	394.2521667480469	92.37091064453125	1368.410034179688	432.4301452636719	108.9958648681641	1312.749267578125	588.212158203125	23.64589309692383	1227.168090820312	394.7684326171875	191.3217468261719	1333.02099609375	404.0353088378906	257.0223999023438	1350.614379882812	480.9241027832031	326.9284973144531	1233.030517578125	458.3382873535156	373.7764587402344	1038.970703125	497.7858276367188	310.1192321777344	1006.640747070312	450.1066284179688	378.4286804199219	841.8857421875	663.1077880859375	429.0223083496094	820.3462524414062	620.7650146484375	398.5512390136719	943.1757202148438	534.5707397460938	431.9757690429688	754.76220703125	641.5761108398438	405.0367431640625	773.8321533203125	698.4100341796875	-61.00292587280273	1353.410034179688	506.6789245605469	-125.2525482177734	1292.154541015625	495.2328491210938	-163.382080078125	1031.979858398438	450.3380737304688	-72.12044525146484	1025.571655273438	426.0419921875	-147.2382354736328	786.656982421875	523.1409301757812	-210.8429107666016	784.6940307617188	479.9039916992188	-180.9447479248047	963.3121337890625	461.5547485351562	-164.5949096679688	615.496337890625	497.1410217285156	-163.8334197998047	676.0758666992188	519.9239501953125	-213.2977142333984	698.8618774414062	474.7244567871094	14.4785852432251	1581.762451171875	530.289794921875	162.9921722412109	1555.857543945312	672.9006958007812	62.62860107421875	1553.986572265625	682.7312622070312	152.35693359375	1586.887329101562	489.1413879394531	243.5507507324219	892.43701171875	427.9228210449219	-75.25765991210938	887.3257446289062	556.8721923828125	5.473931789398193	917.8506469726562	632.271240234375	235.3633422851562	913.1300659179688	565.9173583984375	211.7962493896484	441.5383911132812	410.9309997558594	233.5881958007812	572.572509765625	433.7437133789062	61.24523162841797	120.6499633789062	139.3725280761719	149.5917205810547	272.1076049804688	266.2637634277344	110.232780456543	37.55929183959961	308.6880187988281	42.05711364746094	38.85604476928711	286.3638000488281	132.4640808105469	49.85142135620117	212.5651702880859	-10.71002960205078	136.8993835449219	156.9994964599609	53.36769866943359	444.6050415039062	696.5592041015625	-25.11122703552246	694.4505615234375	666.8088989257812	135.4846954345703	46.04850387573242	701.631103515625	86.28071594238281	332.3964233398438	724.8881225585938	216.3984985351562	55.88036346435547	884.2885131835938	249.6356048583984	43.11293029785156	824.027587890625	135.2527618408203	38.26507568359375	804.1142578125	176.8201599121094	44.67966842651367	646.8776245117188	393.4208984375	691.661376953125	726.2586059570312	nan	nan	nan	
